<svg width="879" height="692" viewBox="0 0 879 692" fill="none" xmlns="http://www.w3.org/2000/svg">
<circle cx="1098.86" cy="240.639" r="507.339" transform="rotate(45 1098.86 240.639)" stroke="url(#paint0_linear_101_1580)"/>
<circle cx="1098.86" cy="240.639" r="488.53" transform="rotate(45 1098.86 240.639)" stroke="url(#paint1_linear_101_1580)"/>
<circle cx="1098.86" cy="240.64" r="468.424" transform="rotate(45 1098.86 240.64)" stroke="url(#paint2_linear_101_1580)"/>
<path d="M1471.82 613.599C1266.35 819.073 933.311 819.175 727.964 613.829C522.618 408.482 522.72 75.4463 728.194 -130.027C933.667 -335.501 1266.7 -335.603 1472.05 -130.257C1677.4 75.0899 1677.29 408.126 1471.82 613.599Z" stroke="url(#paint3_linear_101_1580)"/>
<circle cx="1100.69" cy="243.391" r="543.659" transform="rotate(45 1100.69 243.391)" stroke="url(#paint4_linear_101_1580)"/>
<circle cx="1098.4" cy="240.181" r="564.414" transform="rotate(45 1098.4 240.181)" stroke="url(#paint5_linear_101_1580)"/>
<circle cx="1098.4" cy="240.181" r="584.52" transform="rotate(45 1098.4 240.181)" stroke="url(#paint6_linear_101_1580)"/>
<circle cx="1098.4" cy="240.181" r="603.329" transform="rotate(45 1098.4 240.181)" stroke="url(#paint7_linear_101_1580)"/>
<circle cx="1098.4" cy="240.181" r="622.138" transform="rotate(45 1098.4 240.181)" stroke="url(#paint8_linear_101_1580)"/>
<circle cx="1098.4" cy="240.181" r="642.244" transform="rotate(45 1098.4 240.181)" stroke="url(#paint9_linear_101_1580)"/>
<circle cx="1098.4" cy="240.181" r="661.053" transform="rotate(45 1098.4 240.181)" stroke="url(#paint10_linear_101_1580)"/>
<circle cx="1098.4" cy="240.18" r="680.51" transform="rotate(45 1098.4 240.18)" stroke="url(#paint11_linear_101_1580)"/>
<circle cx="1098.4" cy="240.181" r="699.967" transform="rotate(45 1098.4 240.181)" stroke="url(#paint12_linear_101_1580)"/>
<circle cx="1098.4" cy="240.181" r="719.425" transform="rotate(45 1098.4 240.181)" stroke="url(#paint13_linear_101_1580)"/>
<circle cx="1098.4" cy="240.181" r="738.234" transform="rotate(45 1098.4 240.181)" stroke="url(#paint14_linear_101_1580)"/>
<circle cx="1098.4" cy="240.181" r="758.34" transform="rotate(45 1098.4 240.181)" stroke="url(#paint15_linear_101_1580)"/>
<circle cx="1098.4" cy="240.181" r="776.5" transform="rotate(45 1098.4 240.181)" stroke="url(#paint16_linear_101_1580)"/>
<defs>
<linearGradient id="paint0_linear_101_1580" x1="1098.86" y1="-267.2" x2="1098.86" y2="748.478" gradientUnits="userSpaceOnUse">
<stop stop-color="#4B4B68"/>
<stop offset="1" stop-color="#C4C4C4" stop-opacity="0"/>
</linearGradient>
<linearGradient id="paint1_linear_101_1580" x1="1098.86" y1="-248.391" x2="1098.86" y2="729.669" gradientUnits="userSpaceOnUse">
<stop stop-color="#4B4B68"/>
<stop offset="1" stop-color="#C4C4C4" stop-opacity="0"/>
</linearGradient>
<linearGradient id="paint2_linear_101_1580" x1="1098.86" y1="-228.285" x2="1098.86" y2="709.564" gradientUnits="userSpaceOnUse">
<stop stop-color="#4B4B68"/>
<stop offset="1" stop-color="#C4C4C4" stop-opacity="0"/>
</linearGradient>
<linearGradient id="paint3_linear_101_1580" x1="1472.4" y1="-130.61" x2="727.611" y2="614.182" gradientUnits="userSpaceOnUse">
<stop stop-color="#4B4B68"/>
<stop offset="1" stop-color="#C4C4C4" stop-opacity="0"/>
</linearGradient>
<linearGradient id="paint4_linear_101_1580" x1="1100.69" y1="-300.768" x2="1100.69" y2="787.551" gradientUnits="userSpaceOnUse">
<stop stop-color="#4B4B68"/>
<stop offset="1" stop-color="#C4C4C4" stop-opacity="0"/>
</linearGradient>
<linearGradient id="paint5_linear_101_1580" x1="1098.4" y1="-324.733" x2="1098.4" y2="805.095" gradientUnits="userSpaceOnUse">
<stop stop-color="#4B4B68"/>
<stop offset="1" stop-color="#C4C4C4" stop-opacity="0"/>
</linearGradient>
<linearGradient id="paint6_linear_101_1580" x1="1098.4" y1="-344.839" x2="1098.4" y2="825.201" gradientUnits="userSpaceOnUse">
<stop stop-color="#4B4B68"/>
<stop offset="1" stop-color="#C4C4C4" stop-opacity="0"/>
</linearGradient>
<linearGradient id="paint7_linear_101_1580" x1="1098.4" y1="-363.648" x2="1098.4" y2="844.009" gradientUnits="userSpaceOnUse">
<stop stop-color="#4B4B68"/>
<stop offset="1" stop-color="#C4C4C4" stop-opacity="0"/>
</linearGradient>
<linearGradient id="paint8_linear_101_1580" x1="1098.4" y1="-382.457" x2="1098.4" y2="862.818" gradientUnits="userSpaceOnUse">
<stop stop-color="#4B4B68"/>
<stop offset="1" stop-color="#C4C4C4" stop-opacity="0"/>
</linearGradient>
<linearGradient id="paint9_linear_101_1580" x1="1098.4" y1="-402.563" x2="1098.4" y2="882.924" gradientUnits="userSpaceOnUse">
<stop stop-color="#4B4B68"/>
<stop offset="1" stop-color="#C4C4C4" stop-opacity="0"/>
</linearGradient>
<linearGradient id="paint10_linear_101_1580" x1="1098.4" y1="-421.372" x2="1098.4" y2="901.733" gradientUnits="userSpaceOnUse">
<stop stop-color="#4B4B68"/>
<stop offset="1" stop-color="#C4C4C4" stop-opacity="0"/>
</linearGradient>
<linearGradient id="paint11_linear_101_1580" x1="1098.4" y1="-440.83" x2="1098.4" y2="921.19" gradientUnits="userSpaceOnUse">
<stop stop-color="#4B4B68"/>
<stop offset="1" stop-color="#C4C4C4" stop-opacity="0"/>
</linearGradient>
<linearGradient id="paint12_linear_101_1580" x1="1098.4" y1="-460.287" x2="1098.4" y2="940.648" gradientUnits="userSpaceOnUse">
<stop stop-color="#4B4B68"/>
<stop offset="1" stop-color="#C4C4C4" stop-opacity="0"/>
</linearGradient>
<linearGradient id="paint13_linear_101_1580" x1="1098.4" y1="-479.744" x2="1098.4" y2="960.106" gradientUnits="userSpaceOnUse">
<stop stop-color="#4B4B68"/>
<stop offset="1" stop-color="#C4C4C4" stop-opacity="0"/>
</linearGradient>
<linearGradient id="paint14_linear_101_1580" x1="1098.4" y1="-498.553" x2="1098.4" y2="978.914" gradientUnits="userSpaceOnUse">
<stop stop-color="#4B4B68"/>
<stop offset="1" stop-color="#C4C4C4" stop-opacity="0"/>
</linearGradient>
<linearGradient id="paint15_linear_101_1580" x1="1098.4" y1="-518.659" x2="1098.4" y2="999.02" gradientUnits="userSpaceOnUse">
<stop stop-color="#4B4B68"/>
<stop offset="1" stop-color="#C4C4C4" stop-opacity="0"/>
</linearGradient>
<linearGradient id="paint16_linear_101_1580" x1="1098.4" y1="-536.819" x2="1098.4" y2="1017.18" gradientUnits="userSpaceOnUse">
<stop stop-color="#4B4B68"/>
<stop offset="1" stop-color="#C4C4C4" stop-opacity="0"/>
</linearGradient>
</defs>
</svg>
