<svg width="415" height="180" viewBox="0 0 415 180" fill="none" xmlns="http://www.w3.org/2000/svg">
<mask id="mask0_229_6207" style="mask-type:alpha" maskUnits="userSpaceOnUse" x="206" y="0" width="15" height="47">
<rect x="206.25" width="14.1667" height="46.6667" fill="#FF0000"/>
</mask>
<g mask="url(#mask0_229_6207)">
<mask id="mask1_229_6207" style="mask-type:alpha" maskUnits="userSpaceOnUse" x="180" y="-208" width="199" height="637">
<path d="M223.916 -188.25L252.999 -207.5H273.916V-109.167H304.249V11.0834H343.999V19.75H358.333V11.0834H378.416V209.5H358.583V201.75H343.749V209.5H301.833V330.167H273.916V428.083H251.916L223.916 410.917V222.833L180.416 231V-12.4167L223.916 -2.08333V-188.25Z" fill="white" fill-opacity="0.5"/>
</mask>
<g mask="url(#mask1_229_6207)">
<path d="M77.999 64.8334L417.166 -274.333" stroke="#1a2a36"/>
<path d="M77.999 27.3334L417.166 -311.833" stroke="#1a2a36"/>
<path d="M77.999 102.333L417.166 -236.833" stroke="#1a2a36"/>
<path d="M77.999 139.833L417.166 -199.333" stroke="#1a2a36"/>
<path d="M77.999 177.333L417.166 -161.833" stroke="#1a2a36"/>
<path d="M77.999 214.833L417.166 -124.333" stroke="#1a2a36"/>
<path d="M77.999 252.333L417.166 -86.8333" stroke="#1a2a36"/>
<path d="M77.999 289.833L417.166 -49.3333" stroke="#1a2a36"/>
<path d="M77.999 327.333L417.166 -11.8333" stroke="#1a2a36"/>
<path d="M77.999 364.833L417.166 25.6667" stroke="#1a2a36"/>
</g>
</g>
<mask id="mask2_229_6207" style="mask-type:alpha" maskUnits="userSpaceOnUse" x="206" y="132" width="15" height="48">
<rect x="206.25" y="132.5" width="14.1667" height="46.6667" fill="#FF0000"/>
</mask>
<g mask="url(#mask2_229_6207)">
<mask id="mask3_229_6207" style="mask-type:alpha" maskUnits="userSpaceOnUse" x="180" y="-75" width="199" height="636">
<path d="M223.916 -55.75L252.999 -75H273.916V23.3333H304.249V143.583H343.999V152.25H358.333V143.583H378.416V342H358.583V334.25H343.749V342H301.833V462.667H273.916V560.583H251.916L223.916 543.417V355.333L180.416 363.5V120.083L223.916 130.417V-55.75Z" fill="white" fill-opacity="0.5"/>
</mask>
<g mask="url(#mask3_229_6207)">
<path d="M77.999 197.333L417.166 -141.833" stroke="#1a2a36"/>
<path d="M77.999 159.833L417.166 -179.333" stroke="#1a2a36"/>
<path d="M77.999 234.833L417.166 -104.333" stroke="#1a2a36"/>
<path d="M77.999 272.333L417.166 -66.8333" stroke="#1a2a36"/>
<path d="M77.999 309.833L417.166 -29.3333" stroke="#1a2a36"/>
<path d="M77.999 347.333L417.166 8.16669" stroke="#1a2a36"/>
<path d="M77.999 384.833L417.166 45.6667" stroke="#1a2a36"/>
<path d="M77.999 422.333L417.166 83.1667" stroke="#1a2a36"/>
<path d="M77.999 459.833L417.166 120.667" stroke="#1a2a36"/>
<path d="M77.999 497.333L417.166 158.167" stroke="#1a2a36"/>
</g>
</g>
<circle cx="90.4167" cy="90" r="45.6667" stroke="#1a2a36" stroke-width="2"/>
<circle cx="90.416" cy="90" r="89" stroke="#1a2a36" stroke-width="2"/>
<mask id="mask4_229_6207" style="mask-type:alpha" maskUnits="userSpaceOnUse" x="0" y="0" width="181" height="180">
<path d="M180.416 90C180.416 139.706 140.122 180 90.416 180C40.7104 180 0.416016 139.706 0.416016 90C0.416016 40.2944 40.7104 0 90.416 0C140.122 0 180.416 40.2944 180.416 90ZM44.0073 90C44.0073 115.631 64.7852 136.409 90.416 136.409C116.047 136.409 136.825 115.631 136.825 90C136.825 64.3692 116.047 43.5913 90.416 43.5913C64.7852 43.5913 44.0073 64.3692 44.0073 90Z" fill="#FF0000"/>
</mask>
<g mask="url(#mask4_229_6207)">
<mask id="mask5_229_6207" style="mask-type:alpha" maskUnits="userSpaceOnUse" x="-9" y="-228" width="199" height="637">
<path d="M34.749 -208.25L63.8323 -227.5H84.749V-129.167H115.082V-8.91661H154.832V-0.250031H169.166V-8.91661H189.249V189.5H169.416V181.75H154.582V189.5H112.666V310.167H84.749V408.083H62.749L34.749 390.917V202.833L-8.75098 211V-32.4167L34.749 -22.0833V-208.25Z" fill="white" fill-opacity="0.5"/>
</mask>
<g mask="url(#mask5_229_6207)">
<path d="M-111.168 44.8334L227.999 -294.333" stroke="#1a2a36"/>
<path d="M-111.168 7.33337L227.999 -331.833" stroke="#1a2a36"/>
<path d="M-111.168 82.3334L227.999 -256.833" stroke="#1a2a36"/>
<path d="M-111.168 119.833L227.999 -219.333" stroke="#1a2a36"/>
<path d="M-111.168 157.333L227.999 -181.833" stroke="#1a2a36"/>
<path d="M-111.168 194.833L227.999 -144.333" stroke="#1a2a36"/>
<path d="M-111.168 232.333L227.999 -106.833" stroke="#1a2a36"/>
<path d="M-111.168 269.833L227.999 -69.3333" stroke="#1a2a36"/>
<path d="M-111.168 307.333L227.999 -31.8333" stroke="#1a2a36"/>
<path d="M-111.168 344.833L227.999 5.66669" stroke="#1a2a36"/>
<path d="M-111.168 382.333L227.999 43.1667" stroke="#1a2a36"/>
<path d="M-111.168 419.833L227.999 80.6667" stroke="#1a2a36"/>
<path d="M-111.168 457.333L227.999 118.167" stroke="#1a2a36"/>
<path d="M-111.168 494.833L227.999 155.667" stroke="#1a2a36"/>
</g>
</g>
<rect x="207.25" y="1" width="12.1667" height="178" stroke="#1a2a36" stroke-width="2"/>
<rect x="207.25" y="133.5" width="12.1667" height="45.5" stroke="#1a2a36" stroke-width="2"/>
<rect x="207.25" y="1" width="12.1667" height="44.6667" stroke="#1a2a36" stroke-width="2"/>
<rect x="122.916" width="78.3333" height="2.5" fill="#1a2a36"/>
<rect x="225.416" width="189.167" height="2.5" fill="#1a2a36"/>
<rect x="122.916" y="175" width="78.3333" height="2.5" fill="#1a2a36"/>
<rect x="225.416" y="175" width="189.167" height="2.5" fill="#1a2a36"/>
<rect x="121.25" y="132.5" width="78.3333" height="4.16667" fill="#1a2a36"/>
<rect x="227.083" y="132.5" width="78.3333" height="4.16667" fill="#1a2a36"/>
<rect x="121.25" y="42.5" width="78.3333" height="4.16667" fill="#1a2a36"/>
<rect x="227.083" y="42.5" width="78.3333" height="4.16667" fill="#1a2a36"/>
<path d="M392.79 5.12623C392.4 4.7357 391.766 4.7357 391.376 5.12623L385.012 11.4902C384.621 11.8807 384.621 12.5139 385.012 12.9044C385.402 13.2949 386.036 13.2949 386.426 12.9044L392.083 7.24755L397.74 12.9044C398.13 13.2949 398.764 13.2949 399.154 12.9044C399.545 12.5139 399.545 11.8807 399.154 11.4902L392.79 5.12623ZM393.083 72.5L393.083 5.83334L391.083 5.83334L391.083 72.5L393.083 72.5Z" fill="#1a2a36"/>
<path d="M286.123 49.2929C285.733 48.9024 285.099 48.9024 284.709 49.2929L278.345 55.6568C277.954 56.0474 277.954 56.6805 278.345 57.0711C278.735 57.4616 279.369 57.4616 279.759 57.0711L285.416 51.4142L291.073 57.0711C291.463 57.4616 292.097 57.4616 292.487 57.0711C292.878 56.6805 292.878 56.0474 292.487 55.6568L286.123 49.2929ZM286.416 76.6667L286.416 50L284.416 50L284.416 76.6667L286.416 76.6667Z" fill="#1a2a36"/>
<path d="M391.376 172.374C391.766 172.764 392.4 172.764 392.79 172.374L399.154 166.01C399.545 165.619 399.545 164.986 399.154 164.596C398.764 164.205 398.13 164.205 397.74 164.596L392.083 170.252L386.426 164.596C386.036 164.205 385.402 164.205 385.012 164.596C384.621 164.986 384.621 165.619 385.012 166.01L391.376 172.374ZM391.083 105L391.083 171.667L393.083 171.667L393.083 105L391.083 105Z" fill="#1a2a36"/>
<path d="M284.709 129.874C285.099 130.264 285.733 130.264 286.123 129.874L292.487 123.51C292.878 123.119 292.878 122.486 292.487 122.096C292.097 121.705 291.463 121.705 291.073 122.096L285.416 127.752L279.759 122.096C279.369 121.705 278.735 121.705 278.345 122.096C277.954 122.486 277.954 123.119 278.345 123.51L284.709 129.874ZM284.416 102.5L284.416 129.167L286.416 129.167L286.416 102.5L284.416 102.5Z" fill="#1a2a36"/>
<path d="M382.062 81.6667C377.937 81.6667 375.416 84.5833 375.416 89.2708C375.416 93.9375 377.937 96.8958 382.062 96.8958C386.166 96.8958 388.687 93.9375 388.687 89.2708C388.687 84.5833 386.166 81.6667 382.062 81.6667ZM382.062 84.6875C384.083 84.6875 385.291 86.3542 385.291 89.2708C385.291 92.125 384.083 93.8958 382.062 93.8958C380.041 93.8958 378.812 92.125 378.812 89.2708C378.812 86.3542 380.041 84.6875 382.062 84.6875Z" fill="#1a2a36"/>
<path d="M391.942 93.0208C390.755 93.0208 390.047 93.7292 390.047 94.9583C390.047 96.1667 390.755 96.8958 391.942 96.8958C393.151 96.8958 393.859 96.1667 393.859 94.9583C393.859 93.7292 393.151 93.0208 391.942 93.0208Z" fill="#1a2a36"/>
<path d="M396.53 81.8958C396.363 81.8958 396.259 82 396.259 82.1667V96.3958C396.259 96.5625 396.363 96.6667 396.53 96.6667H401.697C405.78 96.6667 408.363 93.7083 408.363 89.2917C408.363 84.7708 405.863 81.8958 401.697 81.8958H396.53ZM399.634 84.8542H401.697C403.717 84.8542 404.967 86.4375 404.967 89.2917C404.967 92.125 403.717 93.7292 401.697 93.7292H399.634V84.8542Z" fill="#1a2a36"/>
<path d="M411.636 93.0208C410.449 93.0208 409.741 93.7292 409.741 94.9583C409.741 96.1667 410.449 96.8958 411.636 96.8958C412.845 96.8958 413.553 96.1667 413.553 94.9583C413.553 93.7292 412.845 93.0208 411.636 93.0208Z" fill="#1a2a36"/>
<path d="M276.291 93.5V81.9375C276.291 81.7708 276.187 81.6667 276.02 81.6667H273.187C273.02 81.6667 272.916 81.7708 272.916 81.9375V96.1667C272.916 96.3333 273.02 96.4375 273.187 96.4375H282.333C282.499 96.4375 282.604 96.3333 282.604 96.1667V93.7708C282.604 93.6042 282.499 93.5 282.333 93.5H276.291Z" fill="#1a2a36"/>
<path d="M286.503 92.7917C285.315 92.7917 284.607 93.5 284.607 94.7292C284.607 95.9375 285.315 96.6667 286.503 96.6667C287.711 96.6667 288.42 95.9375 288.42 94.7292C288.42 93.5 287.711 92.7917 286.503 92.7917Z" fill="#1a2a36"/>
<path d="M291.09 81.6667C290.924 81.6667 290.82 81.7708 290.82 81.9375V96.1667C290.82 96.3333 290.924 96.4375 291.09 96.4375H296.257C300.34 96.4375 302.924 93.4792 302.924 89.0625C302.924 84.5417 300.424 81.6667 296.257 81.6667H291.09ZM294.195 84.625H296.257C298.278 84.625 299.528 86.2083 299.528 89.0625C299.528 91.8958 298.278 93.5 296.257 93.5H294.195V84.625Z" fill="#1a2a36"/>
<path d="M306.197 92.7917C305.009 92.7917 304.301 93.5 304.301 94.7292C304.301 95.9375 305.009 96.6667 306.197 96.6667C307.405 96.6667 308.114 95.9375 308.114 94.7292C308.114 93.5 307.405 92.7917 306.197 92.7917Z" fill="#1a2a36"/>
</svg>
