<svg width="750" height="826" viewBox="0 0 750 826" fill="none" xmlns="http://www.w3.org/2000/svg">
<path opacity="0.26" d="M749.154 18.0996V16.557H725.193V0H723.65V16.557H673.414V0H671.871V16.557H621.634V0H620.092V16.557H569.855V0H568.312V16.557H518.076V0H516.533V16.557H466.297V0H464.754V16.557H414.517V0H412.975V16.557H362.738V0H361.195V16.557H310.959V0H309.416V16.557H259.179V0H257.637V16.557H207.4V0H205.858V16.557H155.621V0H154.078V16.557H103.842V0H102.299V16.557H52.0625V0H50.5199V16.557H0.283211V0H-1.25937V16.557H-51.4961V0H-53.0386V16.557H-77.1543V18.0996H-53.1929V69.3132H-77.1543V70.8558H-53.1929V122.069H-77.1543V123.612H-53.1929V174.826H-77.1543V176.368H-53.1929V227.582H-77.1543V229.125H-53.1929V280.338H-77.1543V281.881H-53.1929V333.094H-77.1543V334.637H-53.1929V385.851H-77.1543V387.393H-53.1929V438.607H-77.1543V440.149H-53.1929V491.363H-77.1543V492.906H-53.1929V544.119H-77.1543V545.662H-53.1929V596.876H-77.1543V598.418H-53.1929V649.632H-77.1543V651.174H-53.1929V702.388H-77.1543V703.931H-53.1929V755.144H-77.1543V756.687H-53.1929V807.9H-77.1543V809.443H-53.1929V826H-51.6503V809.443H-1.41364V826H0.128937V809.443H50.3656V826H51.9082V809.443H102.145V826H103.687V809.443H153.924V826H155.467V809.443H205.703V826H207.246V809.443H257.483V826H259.025V809.443H309.262V826H310.805V809.443H361.041V826H362.584V809.443H412.82V826H414.363V809.443H464.6V826H466.142V809.443H516.379V826H517.922V809.443H568.158V826H569.701V809.443H619.937V826H621.48V809.443H671.717V826H673.259V809.443H723.496V826H725.039V809.443H749V807.9H725.039V756.995H749V755.453H725.039V704.239H749V702.696H725.039V651.483H749V649.94H725.039V598.727H749V597.184H725.039V545.97H749V544.428H725.039V493.214H749V491.672H725.039V440.458H749V438.915H725.039V387.702H749V386.159H725.039V334.945H749V333.403H725.039V282.189H749V280.647H725.039V229.433H749V227.89H725.039V176.677H749V175.134H725.039V123.921H749V122.378H725.039V71.1643H749V69.6217H725.039V18.0996H749.154ZM671.82 18.0996V69.3132H621.583V18.0996H671.82ZM310.856 386.005V334.791H361.093V386.005H310.856ZM361.093 387.547V438.761H310.856V387.547H361.093ZM309.313 386.005H259.077V334.791H309.313V386.005ZM309.313 387.547V438.761H259.077V387.547H309.313ZM309.313 440.304V491.517H259.077V440.304H309.313ZM310.856 440.304H361.093V491.517H310.856V440.304ZM362.635 440.304H412.872V491.517H362.635V440.304ZM362.635 438.761V387.547H412.872V438.761H362.635ZM362.635 386.005V334.791H412.872V386.005H362.635ZM362.635 333.249V282.035H412.872V333.249H362.635ZM361.093 333.249H310.856V282.035H361.093V333.249ZM309.313 333.249H259.077V282.035H309.313V333.249ZM257.534 333.249H207.297V282.035H257.534V333.249ZM257.534 334.791V386.005H207.297V334.791H257.534ZM257.534 387.547V438.761H207.297V387.547H257.534ZM257.534 440.304V491.517H207.297V440.304H257.534ZM257.534 493.111V544.325H207.297V493.111H257.534ZM259.077 493.111H309.313V544.325H259.077V493.111ZM310.856 493.111H361.093V544.325H310.856V493.111ZM362.635 493.111H412.872V544.325H362.635V493.111ZM414.466 493.111H464.703V544.325H414.466V493.111ZM414.466 491.569V440.355H464.703V491.569H414.466ZM414.466 438.761V387.547H464.703V438.761H414.466ZM414.466 386.005V334.791H464.703V386.005H414.466ZM414.466 333.249V282.035H464.703V333.249H414.466ZM414.466 280.441V229.227H464.703V280.441H414.466ZM412.923 280.441H362.687V229.227H412.923V280.441ZM361.093 280.441H310.856V229.227H361.093V280.441ZM309.313 280.441H259.077V229.227H309.313V280.441ZM257.534 280.441H207.297V229.227H257.534V280.441ZM205.755 280.441H155.518V229.227H205.755V280.441ZM205.755 281.984V333.197H155.518V281.984H205.755ZM205.755 334.791V386.005H155.518V334.791H205.755ZM205.755 387.547V438.761H155.518V387.547H205.755ZM205.755 440.304V491.517H155.518V440.304H205.755ZM205.755 493.111V544.325H155.518V493.111H205.755ZM205.755 545.867V597.081H155.518V545.867H205.755ZM207.297 545.867H257.534V597.081H207.297V545.867ZM259.077 545.867H309.313V597.081H259.077V545.867ZM310.856 545.867H361.093V597.081H310.856V545.867ZM362.635 545.867H412.872V597.081H362.635V545.867ZM414.466 545.867H464.703V597.081H414.466V545.867ZM466.245 545.867H516.482V597.081H466.245V545.867ZM466.245 544.325V493.111H516.482V544.325H466.245ZM466.245 491.569V440.355H516.482V491.569H466.245ZM466.245 438.761V387.547H516.482V438.761H466.245ZM466.245 386.005V334.791H516.482V386.005H466.245ZM466.245 333.249V282.035H516.482V333.249H466.245ZM466.245 280.441V229.227H516.482V280.441H466.245ZM466.245 227.685V176.471H516.482V227.685H466.245ZM464.703 227.685H414.466V176.471H464.703V227.685ZM412.923 227.685H362.687V176.471H412.923V227.685ZM361.093 227.685H310.856V176.471H361.093V227.685ZM309.313 227.685H259.077V176.471H309.313V227.685ZM257.534 227.685H207.297V176.471H257.534V227.685ZM205.755 227.685H155.518V176.471H205.755V227.685ZM153.976 227.685H103.739V176.471H153.976V227.685ZM153.976 229.227V280.441H103.739V229.227H153.976ZM153.976 281.984V333.197H103.739V281.984H153.976ZM153.976 334.791V386.005H103.739V334.791H153.976ZM153.976 387.547V438.761H103.739V387.547H153.976ZM153.976 440.304V491.517H103.739V440.304H153.976ZM153.976 493.111V544.325H103.739V493.111H153.976ZM153.976 545.867V597.081H103.739V545.867H153.976ZM153.976 598.675V649.889H103.739V598.675H153.976ZM155.518 598.675H205.755V649.889H155.518V598.675ZM207.297 598.675H257.534V649.889H207.297V598.675ZM259.077 598.675H309.313V649.889H259.077V598.675ZM310.856 598.675H361.093V649.889H310.856V598.675ZM362.635 598.675H412.872V649.889H362.635V598.675ZM414.466 598.675H464.703V649.889H414.466V598.675ZM466.245 598.675H516.482V649.889H466.245V598.675ZM518.024 598.675H568.261V649.889H518.024V598.675ZM518.024 597.133V545.919H568.261V597.133H518.024ZM518.024 544.325V493.111H568.261V544.325H518.024ZM518.024 491.569V440.355H568.261V491.569H518.024ZM518.024 438.761V387.547H568.261V438.761H518.024ZM518.024 386.005V334.791H568.261V386.005H518.024ZM518.024 333.249V282.035H568.261V333.249H518.024ZM518.024 280.441V229.227H568.261V280.441H518.024ZM518.024 227.685V176.471H568.261V227.685H518.024ZM518.024 174.877V123.664H568.261V174.877H518.024ZM516.482 174.877H466.245V123.664H516.482V174.877ZM464.703 174.877H414.466V123.664H464.703V174.877ZM412.923 174.877H362.687V123.664H412.923V174.877ZM361.093 174.877H310.856V123.664H361.093V174.877ZM309.313 174.877H259.077V123.664H309.313V174.877ZM257.534 174.877H207.297V123.664H257.534V174.877ZM205.755 174.877H155.518V123.664H205.755V174.877ZM153.976 174.877H103.739V123.664H153.976V174.877ZM102.196 174.877H51.9596V123.664H102.196V174.877ZM102.196 176.42V227.633H51.9596V176.42H102.196ZM102.196 229.227V280.441H51.9596V229.227H102.196ZM102.196 281.984V333.197H51.9596V281.984H102.196ZM102.196 334.791V386.005H51.9596V334.791H102.196ZM102.196 387.547V438.761H51.9596V387.547H102.196ZM102.196 440.304V491.517H51.9596V440.304H102.196ZM102.196 493.111V544.325H51.9596V493.111H102.196ZM102.196 545.867V597.081H51.9596V545.867H102.196ZM102.196 598.675V649.889H51.9596V598.675H102.196ZM102.196 651.431V702.645H51.9596V651.431H102.196ZM103.739 651.431H153.976V702.645H103.739V651.431ZM155.518 651.431H205.755V702.645H155.518V651.431ZM207.297 651.431H257.534V702.645H207.297V651.431ZM259.077 651.431H309.313V702.645H259.077V651.431ZM310.856 651.431H361.093V702.645H310.856V651.431ZM362.635 651.431H412.872V702.645H362.635V651.431ZM414.466 651.431H464.703V702.645H414.466V651.431ZM466.245 651.431H516.482V702.645H466.245V651.431ZM518.024 651.431H568.261V702.645H518.024V651.431ZM569.804 651.431H620.04V702.645H569.804V651.431ZM569.804 649.889V598.675H620.04V649.889H569.804ZM569.804 597.133V545.919H620.04V597.133H569.804ZM569.804 544.325V493.111H620.04V544.325H569.804ZM569.804 491.569V440.355H620.04V491.569H569.804ZM569.804 438.761V387.547H620.04V438.761H569.804ZM569.804 386.005V334.791H620.04V386.005H569.804ZM569.804 333.249V282.035H620.04V333.249H569.804ZM569.804 280.441V229.227H620.04V280.441H569.804ZM569.804 227.685V176.471H620.04V227.685H569.804ZM569.804 174.877V123.664H620.04V174.877H569.804ZM569.804 122.121V70.9072H620.04V122.121H569.804ZM568.261 122.121H518.024V70.9072H568.261V122.121ZM516.482 122.121H466.245V70.9072H516.482V122.121ZM464.703 122.121H414.466V70.9072H464.703V122.121ZM412.923 122.121H362.687V70.9072H412.923V122.121ZM361.093 122.121H310.856V70.9072H361.093V122.121ZM309.313 122.121H259.077V70.9072H309.313V122.121ZM257.534 122.121H207.297V70.9072H257.534V122.121ZM205.755 122.121H155.518V70.9072H205.755V122.121ZM153.976 122.121H103.739V70.9072H153.976V122.121ZM102.196 122.121H51.9596V70.9072H102.196V122.121ZM50.417 122.121H0.180367V70.9072H50.417V122.121ZM50.417 123.664V174.877H0.180367V123.664H50.417ZM50.417 176.42V227.633H0.180367V176.42H50.417ZM50.417 229.227V280.441H0.180367V229.227H50.417ZM50.417 281.984V333.197H0.180367V281.984H50.417ZM50.417 334.791V386.005H0.180367V334.791H50.417ZM50.417 387.547V438.761H0.180367V387.547H50.417ZM50.417 440.304V491.517H0.180367V440.304H50.417ZM50.417 493.111V544.325H0.180367V493.111H50.417ZM50.417 545.867V597.081H0.180367V545.867H50.417ZM50.417 598.675V649.889H0.180367V598.675H50.417ZM50.417 651.431V702.645H0.180367V651.431H50.417ZM50.417 704.188V755.401H0.180367V704.188H50.417ZM51.9596 704.188H102.196V755.401H51.9596V704.188ZM103.739 704.188H153.976V755.401H103.739V704.188ZM155.518 704.188H205.755V755.401H155.518V704.188ZM207.297 704.188H257.534V755.401H207.297V704.188ZM259.077 704.188H309.313V755.401H259.077V704.188ZM310.856 704.188H361.093V755.401H310.856V704.188ZM362.635 704.188H412.872V755.401H362.635V704.188ZM414.466 704.188H464.703V755.401H414.466V704.188ZM466.245 704.188H516.482V755.401H466.245V704.188ZM518.024 704.188H568.261V755.401H518.024V704.188ZM569.804 704.188H620.04V755.401H569.804V704.188ZM621.583 704.188H671.82V755.401H621.583V704.188ZM621.583 702.645V651.431H671.82V702.645H621.583ZM621.583 649.889V598.675H671.82V649.889H621.583ZM621.583 597.133V545.919H671.82V597.133H621.583ZM621.583 544.325V493.111H671.82V544.325H621.583ZM621.583 491.569V440.355H671.82V491.569H621.583ZM621.583 438.761V387.547H671.82V438.761H621.583ZM621.583 386.005V334.791H671.82V386.005H621.583ZM621.583 333.249V282.035H671.82V333.249H621.583ZM621.583 280.441V229.227H671.82V280.441H621.583ZM621.583 227.685V176.471H671.82V227.685H621.583ZM621.583 174.877V123.664H671.82V174.877H621.583ZM621.583 122.121V70.9072H671.82V122.121H621.583ZM620.04 18.0996V69.3132H569.804V18.0996H620.04ZM568.261 18.0996V69.3132H518.024V18.0996H568.261ZM516.482 18.0996V69.3132H466.245V18.0996H516.482ZM464.703 18.0996V69.3132H414.466V18.0996H464.703ZM412.923 18.0996V69.3132H362.687V18.0996H412.923ZM361.093 18.0996V69.3132H310.856V18.0996H361.093ZM309.313 18.0996V69.3132H259.077V18.0996H309.313ZM257.534 18.0996V69.3132H207.297V18.0996H257.534ZM205.755 18.0996V69.3132H155.518V18.0996H205.755ZM153.976 18.0996V69.3132H103.739V18.0996H153.976ZM102.196 18.0996V69.3132H51.9596V18.0996H102.196ZM50.417 18.0996V69.3132H0.180367V18.0996H50.417ZM-51.6503 18.0996H-1.41364V69.3132H-51.6503V18.0996ZM-51.6503 70.9072H-1.41364V122.121H-51.6503V70.9072ZM-51.6503 123.664H-1.41364V174.877H-51.6503V123.664ZM-51.6503 176.42H-1.41364V227.633H-51.6503V176.42ZM-51.6503 229.227H-1.41364V280.441H-51.6503V229.227ZM-51.6503 281.984H-1.41364V333.197H-51.6503V281.984ZM-51.6503 334.791H-1.41364V386.005H-51.6503V334.791ZM-51.6503 387.547H-1.41364V438.761H-51.6503V387.547ZM-51.6503 440.304H-1.41364V491.517H-51.6503V440.304ZM-51.6503 493.111H-1.41364V544.325H-51.6503V493.111ZM-51.6503 545.867H-1.41364V597.081H-51.6503V545.867ZM-51.6503 598.675H-1.41364V649.889H-51.6503V598.675ZM-51.6503 651.431H-1.41364V702.645H-51.6503V651.431ZM-51.6503 704.188H-1.41364V755.401H-51.6503V704.188ZM-51.6503 808.209V756.995H-1.41364V808.209H-51.6503ZM0.128937 808.209V756.995H50.3656V808.209H0.128937ZM51.9596 808.209V756.995H102.196V808.209H51.9596ZM103.739 808.209V756.995H153.976V808.209H103.739ZM155.518 808.209V756.995H205.755V808.209H155.518ZM207.297 808.209V756.995H257.534V808.209H207.297ZM259.077 808.209V756.995H309.313V808.209H259.077ZM310.856 808.209V756.995H361.093V808.209H310.856ZM362.635 808.209V756.995H412.872V808.209H362.635ZM414.466 808.209V756.995H464.703V808.209H414.466ZM466.245 808.209V756.995H516.482V808.209H466.245ZM518.024 808.209V756.995H568.261V808.209H518.024ZM569.804 808.209V756.995H620.04V808.209H569.804ZM621.583 808.209V756.995H671.82V808.209H621.583ZM723.599 808.209H673.362V756.995H723.599V808.209ZM723.599 755.453H673.362V704.239H723.599V755.453ZM723.599 702.645H673.362V651.431H723.599V702.645ZM723.599 649.889H673.362V598.675H723.599V649.889ZM723.599 597.133H673.362V545.919H723.599V597.133ZM723.599 544.325H673.362V493.111H723.599V544.325ZM723.599 491.569H673.362V440.355H723.599V491.569ZM723.599 438.761H673.362V387.547H723.599V438.761ZM723.599 386.005H673.362V334.791H723.599V386.005ZM723.599 333.249H673.362V282.035H723.599V333.249ZM723.599 280.441H673.362V229.227H723.599V280.441ZM723.599 227.685H673.362V176.471H723.599V227.685ZM723.599 174.877H673.362V123.664H723.599V174.877ZM723.599 122.121H673.362V70.9072H723.599V122.121ZM723.599 69.3646H673.362V18.0996H723.599V69.3646Z" fill="url(#paint0_radial_268_4301)"/>
<defs>
<radialGradient id="paint0_radial_268_4301" cx="0" cy="0" r="1" gradientUnits="userSpaceOnUse" gradientTransform="translate(335.995 413.162) scale(413.143)">
<stop stop-color="#F6F6F5"/>
<stop offset="1" stop-color="#1E1C25"/>
</radialGradient>
</defs>
</svg>
