<?xml version="1.0" standalone="no"?>
<!DOCTYPE svg PUBLIC "-//W3C//DTD SVG 20010904//EN"
 "http://www.w3.org/TR/2001/REC-SVG-20010904/DTD/svg10.dtd">
<svg version="1.0" xmlns="http://www.w3.org/2000/svg"
 width="700.000000pt" height="700.000000pt" viewBox="0 0 700.000000 700.000000"
 preserveAspectRatio="xMidYMid meet">
<metadata>
Created by potrace 1.14, written by Peter Selinger 2001-2017
</metadata>
<g transform="translate(0.000000,700.000000) scale(0.100000,-0.100000)"
fill="#000000" stroke="none">
<path d="M3369 6996 c-2 -2 -29 -7 -59 -10 -169 -20 -439 -116 -563 -200 -21
-14 -40 -26 -43 -26 -12 0 -144 -97 -219 -161 -168 -141 -323 -315 -454 -509
-151 -223 -239 -388 -366 -685 -111 -260 -229 -690 -281 -1019 -3 -21 -8 -48
-10 -60 -2 -11 -6 -41 -9 -66 -3 -25 -8 -58 -10 -75 -43 -280 -53 -917 -20
-1190 2 -16 7 -61 10 -99 4 -38 8 -78 10 -88 2 -10 11 -69 20 -131 8 -62 18
-123 21 -137 3 -14 7 -36 10 -50 78 -425 218 -843 402 -1205 344 -674 827
-1114 1367 -1246 105 -26 185 -34 330 -34 186 0 308 21 475 80 123 44 350 165
424 226 6 5 38 30 71 57 365 289 678 750 893 1317 81 214 166 499 196 655 3
14 12 59 20 100 24 120 25 130 40 230 46 304 60 495 60 830 0 205 -5 344 -19
495 -6 76 -16 170 -20 195 -2 14 -7 45 -10 70 -18 137 -67 391 -99 520 -2 8
-7 29 -11 45 -83 354 -298 868 -485 1160 -259 404 -553 688 -886 854 -90 46
-272 113 -334 124 -14 3 -36 8 -50 11 -14 3 -38 8 -55 11 -35 7 -340 16 -346
11z"/>
</g>
</svg>
